<svg width="14" height="12" viewBox="0 0 14 12" fill="none" xmlns="http://www.w3.org/2000/svg">
<path d="M10.515 0.0149982H2.515C2.17723 -0.0241511 1.83497 0.0135826 1.51384 0.125377C1.19271 0.237171 0.901013 0.420132 0.660572 0.660572C0.420132 0.901013 0.237171 1.19271 0.125377 1.51384C0.0135826 1.83497 -0.0241511 2.17723 0.0149982 2.515V9.18167C-0.0241511 9.51944 0.0135826 9.86169 0.125377 10.1828C0.237171 10.504 0.420132 10.7957 0.660572 11.0361C0.901013 11.2765 1.19271 11.4595 1.51384 11.5713C1.83497 11.6831 2.17723 11.7208 2.515 11.6817H10.515C10.8528 11.7208 11.195 11.6831 11.5162 11.5713C11.8373 11.4595 12.129 11.2765 12.3694 11.0361C12.6099 10.7957 12.7928 10.504 12.9046 10.1828C13.0164 9.86169 13.0541 9.51944 13.015 9.18167V2.515C13.0541 2.17723 13.0164 1.83497 12.9046 1.51384C12.7928 1.19271 12.6099 0.901013 12.3694 0.660572C12.129 0.420132 11.8373 0.237171 11.5162 0.125377C11.195 0.0135826 10.8528 -0.0241511 10.515 0.0149982ZM1.015 5.015H6.015V7.34833H1.015V5.015ZM7.015 5.015H12.015V7.34833H7.015V5.015ZM2.515 1.015H10.515C11.5663 1.015 12.015 1.46367 12.015 2.515V4.015H1.015V2.515C1.015 1.46367 1.46366 1.015 2.515 1.015ZM1.015 9.18167V8.34833H6.015V10.6817H2.515C1.46366 10.6817 1.015 10.233 1.015 9.18167ZM10.515 10.6817H7.015V8.34833H12.015V9.18167C12.015 10.233 11.5663 10.6817 10.515 10.6817Z" fill="#54BD95"/>
</svg>
